<svg width="1280" height="420" viewBox="0 0 1280 420" fill="none" xmlns="http://www.w3.org/2000/svg" role="img" aria-label="Incident Comms Check project cover">
  <rect width="1280" height="420" rx="30" fill="#1f130f"/>
  <path d="M0 332C168 286 293 306 420 336C560 369 699 376 853 325C1018 270 1148 277 1280 320V420H0V332Z" fill="#b45309" opacity=".16"/>
  <path d="M86 84h560" stroke="#b45309" stroke-width="10" stroke-linecap="round"/>
  <text x="86" y="176" fill="#fff7ed" font-family="Aptos, Segoe UI, ui-sans-serif, system-ui" font-size="50" font-weight="800">Incident Comms Check</text>
  <text x="90" y="237" fill="#fed7aa" font-family="Aptos, Segoe UI, ui-sans-serif, system-ui" font-size="24" font-weight="500">Validate incident communication drafts for...</text>
  <rect x="90" y="288" width="275" height="46" rx="23" fill="#b45309" opacity=".20"/>
  <text x="118" y="319" fill="#fff7ed" font-family="Aptos, Segoe UI, ui-sans-serif, system-ui" font-size="18" font-weight="800" letter-spacing="1">INCIDENT RESPONSE</text>

  <path d="M804 120h272l48 48v128H804z" fill="none" stroke="#b45309" stroke-width="12" stroke-linejoin="round"/>
  <path d="M1076 120v52h52" fill="none" stroke="#f97316" stroke-width="12" stroke-linejoin="round"/>
  <path d="M842 176h158M842 222h214M842 268h130" stroke="#fff7ed" stroke-width="10" stroke-linecap="round" opacity=".72"/>
</svg>
